<mxfile host="65bd71144e">
    <diagram id="K12WCAA5Ja5v42a2jlr2" name="第 1 页">
        <mxGraphModel dx="913" dy="617" grid="1" gridSize="10" guides="1" tooltips="1" connect="1" arrows="1" fold="1" page="1" pageScale="1" pageWidth="827" pageHeight="1169" math="0" shadow="0">
            <root>
                <mxCell id="0"/>
                <mxCell id="1" parent="0"/>
                <mxCell id="3" value="&lt;b&gt;society&lt;/b&gt;:&lt;br&gt;with some args, like birth rate for different age groups" style="rounded=0;whiteSpace=wrap;html=1;horizontal=1;verticalAlign=top;" vertex="1" parent="1">
                    <mxGeometry x="40" y="120" width="560" height="440" as="geometry"/>
                </mxCell>
                <mxCell id="2" value="&lt;b&gt;people&lt;/b&gt;:&lt;br&gt;with args like age, gender" style="rounded=1;whiteSpace=wrap;html=1;" vertex="1" parent="1">
                    <mxGeometry x="130" y="210" width="170" height="60" as="geometry"/>
                </mxCell>
                <mxCell id="4" value="&lt;b&gt;people&lt;/b&gt;:&lt;br&gt;with args like age, gender" style="rounded=1;whiteSpace=wrap;html=1;" vertex="1" parent="1">
                    <mxGeometry x="130" y="280" width="170" height="60" as="geometry"/>
                </mxCell>
                <mxCell id="5" value="&lt;b&gt;people&lt;/b&gt;:&lt;br&gt;with args like age, gender" style="rounded=1;whiteSpace=wrap;html=1;" vertex="1" parent="1">
                    <mxGeometry x="130" y="350" width="170" height="60" as="geometry"/>
                </mxCell>
                <mxCell id="6" value="&lt;b&gt;people&lt;/b&gt;:&lt;br&gt;with args like age, gender" style="rounded=1;whiteSpace=wrap;html=1;" vertex="1" parent="1">
                    <mxGeometry x="130" y="420" width="170" height="60" as="geometry"/>
                </mxCell>
                <mxCell id="7" value="" style="shape=curlyBracket;whiteSpace=wrap;html=1;rounded=1;flipH=1;labelPosition=right;verticalLabelPosition=middle;align=left;verticalAlign=middle;" vertex="1" parent="1">
                    <mxGeometry x="450" y="240" width="20" height="210" as="geometry"/>
                </mxCell>
                <mxCell id="8" value="" style="shape=curlyBracket;whiteSpace=wrap;html=1;rounded=1;flipH=1;labelPosition=right;verticalLabelPosition=middle;align=left;verticalAlign=middle;" vertex="1" parent="1">
                    <mxGeometry x="320" y="350" width="20" height="130" as="geometry"/>
                </mxCell>
                <mxCell id="9" value="age group" style="ellipse;whiteSpace=wrap;html=1;aspect=fixed;" vertex="1" parent="1">
                    <mxGeometry x="360" y="235" width="80" height="80" as="geometry"/>
                </mxCell>
                <mxCell id="10" value="age group" style="ellipse;whiteSpace=wrap;html=1;aspect=fixed;" vertex="1" parent="1">
                    <mxGeometry x="360" y="375" width="80" height="80" as="geometry"/>
                </mxCell>
                <mxCell id="11" value="pyramid" style="triangle;whiteSpace=wrap;html=1;" vertex="1" parent="1">
                    <mxGeometry x="490" y="305" width="60" height="80" as="geometry"/>
                </mxCell>
                <mxCell id="12" value="" style="shape=curlyBracket;whiteSpace=wrap;html=1;rounded=1;flipH=1;labelPosition=right;verticalLabelPosition=middle;align=left;verticalAlign=middle;" vertex="1" parent="1">
                    <mxGeometry x="320" y="210" width="20" height="130" as="geometry"/>
                </mxCell>
            </root>
        </mxGraphModel>
    </diagram>
</mxfile>